<?xml version="1.0" standalone="no"?>
<!DOCTYPE svg PUBLIC "-//W3C//DTD SVG 20010904//EN"
 "http://www.w3.org/TR/2001/REC-SVG-20010904/DTD/svg10.dtd">
<svg version="1.0" xmlns="http://www.w3.org/2000/svg"
 width="859.000000pt" height="262.000000pt" viewBox="0 0 859.000000 262.000000"
 preserveAspectRatio="xMidYMid meet">
<metadata>
Created by potrace 1.16, written by Peter Selinger 2001-2019
</metadata>
<g transform="translate(0.000000,262.000000) scale(0.100000,-0.100000)"
fill="#000000" stroke="none">
<path d="M2447 1853 c-10 -9 -9 -253 1 -253 4 0 18 23 31 50 42 89 94 109 279
110 l113 0 -3 -479 c-3 -468 -3 -480 -24 -508 -12 -16 -39 -34 -63 -42 -81
-26 -44 -36 145 -39 98 -1 189 0 202 3 30 7 28 23 -5 31 -58 12 -65 17 -84 47
-18 30 -19 56 -19 510 l0 477 104 0 c188 0 245 -23 288 -117 10 -24 23 -43 28
-43 14 0 13 247 0 255 -6 4 -32 -4 -58 -17 -47 -23 -49 -23 -437 -23 -383 0
-391 0 -439 23 -56 25 -51 24 -59 15z"/>
<path d="M3808 1826 c-49 -13 -63 -21 -116 -70 -60 -55 -76 -99 -77 -206 0
-157 36 -206 264 -357 207 -138 251 -189 251 -289 0 -56 -14 -92 -52 -131 -63
-65 -203 -82 -295 -35 -75 39 -143 137 -143 209 0 29 -26 49 -34 27 -10 -25
-7 -267 4 -284 8 -12 14 -10 39 14 l29 28 74 -26 c138 -47 233 -49 321 -7 113
55 168 140 175 268 4 75 2 87 -25 145 -35 74 -91 126 -223 210 -197 124 -241
161 -271 225 -69 151 60 282 241 245 87 -19 159 -89 183 -179 6 -24 17 -43 24
-43 10 0 13 30 13 130 0 132 -6 152 -35 113 -12 -16 -18 -16 -103 5 -99 24
-173 27 -244 8z"/>
<path d="M6784 1830 c-59 -12 -156 -53 -206 -88 -94 -65 -183 -188 -219 -301
-30 -93 -37 -274 -15 -361 64 -254 268 -410 534 -410 94 0 182 19 253 55 103
53 233 206 201 237 -14 14 -15 14 -77 -72 -95 -131 -303 -188 -467 -129 -127
47 -235 187 -272 356 -33 148 -16 343 40 456 86 174 261 257 454 216 112 -24
188 -92 239 -213 16 -39 37 -72 45 -74 14 -3 16 16 16 157 0 93 -4 162 -10
166 -5 3 -23 -4 -39 -16 l-29 -21 -130 26 c-131 26 -238 32 -318 16z"/>
<path d="M712 1818 c-6 -7 -82 -227 -170 -488 -87 -261 -168 -493 -180 -515
-21 -41 -75 -85 -105 -85 -22 0 -33 -20 -16 -31 8 -5 75 -8 149 -7 110 3 135
6 135 17 0 8 -15 19 -32 23 -18 5 -40 20 -49 34 -21 31 -13 71 50 254 l42 125
181 3 180 2 58 -174 c68 -202 68 -222 0 -244 -48 -16 -53 -21 -35 -32 19 -12
360 -13 379 -1 19 12 5 31 -24 31 -43 0 -76 23 -99 69 -13 26 -94 258 -181
516 -87 259 -162 480 -168 493 -8 18 -18 22 -57 22 -26 0 -52 -6 -58 -12z m87
-371 c40 -120 71 -221 68 -223 -2 -3 -72 -3 -155 -2 l-150 3 75 229 c41 125
78 224 82 220 4 -5 40 -107 80 -227z"/>
<path d="M5661 1813 c-5 -10 -81 -233 -169 -497 -91 -271 -172 -495 -187 -517
-23 -36 -54 -56 -109 -73 -15 -5 -16 -9 -6 -21 19 -23 295 -18 295 5 0 8 -12
17 -27 20 -15 3 -37 13 -49 23 -31 27 -22 92 36 260 l47 137 181 -2 180 -3 54
-160 c29 -88 53 -174 53 -191 0 -35 -23 -61 -60 -66 -14 -2 -25 -10 -25 -18 0
-13 28 -15 190 -15 161 0 190 2 190 15 0 9 -14 17 -38 21 -20 3 -48 16 -62 29
-28 26 -13 -14 -212 575 -85 253 -159 468 -164 478 -7 13 -22 17 -59 17 -37 0
-52 -4 -59 -17z m87 -351 c39 -120 72 -224 72 -230 0 -14 -300 -18 -300 -4 -1
13 145 452 150 452 3 0 38 -98 78 -218z"/>
<path d="M1422 1798 c3 -7 18 -15 35 -19 41 -8 50 -15 71 -52 15 -29 17 -72
17 -472 0 -405 -1 -443 -18 -473 -18 -33 -38 -45 -89 -56 -34 -8 -36 -24 -5
-31 12 -3 103 -4 201 -3 130 2 180 6 183 15 3 7 -8 15 -24 19 -15 3 -36 8 -46
11 -11 3 -27 24 -38 46 -16 36 -19 68 -19 235 l0 192 72 0 c128 0 184 -45 318
-259 36 -57 89 -136 118 -177 60 -84 68 -87 197 -82 64 2 80 6 83 19 2 11 -6
18 -26 22 -47 9 -115 87 -209 240 -52 83 -114 169 -150 206 -35 36 -62 66 -60
67 1 1 29 15 63 32 75 38 118 86 139 154 49 166 -36 310 -214 362 -71 21 -605
24 -599 4z m523 -52 c50 -21 100 -69 128 -121 16 -30 21 -58 20 -110 0 -107
-44 -184 -127 -227 -33 -17 -64 -22 -158 -26 l-118 -4 0 257 0 258 108 -5 c69
-3 121 -11 147 -22z"/>
<path d="M4390 1795 c0 -8 9 -15 21 -15 25 0 60 -18 76 -39 28 -38 35 -148 31
-526 -3 -306 -6 -388 -18 -420 -15 -40 -41 -59 -93 -70 -16 -3 -27 -11 -24
-18 5 -17 399 -17 404 0 3 7 -8 15 -24 19 -56 12 -61 15 -80 42 -16 24 -18 50
-18 236 l0 209 137 -2 c113 -2 148 1 205 18 124 38 192 99 212 192 14 65 14
93 -3 156 -27 102 -118 180 -251 214 -59 16 -111 19 -322 19 -218 0 -253 -2
-253 -15z m506 -40 c106 -31 176 -132 176 -255 1 -166 -114 -261 -302 -247
-121 8 -110 -18 -110 268 l0 249 93 0 c53 0 115 -6 143 -15z"/>
<path d="M7480 1800 c0 -6 8 -13 18 -16 109 -35 103 -3 100 -544 -3 -454 -3
-460 -24 -481 -12 -11 -37 -24 -55 -28 -20 -4 -34 -13 -34 -21 0 -13 55 -15
383 -18 237 -1 390 2 401 8 10 5 21 20 24 32 3 13 12 50 21 83 19 75 19 85 1
85 -8 0 -22 -16 -31 -35 -25 -53 -66 -92 -110 -104 -61 -17 -375 -14 -400 3
-18 13 -19 28 -19 238 l0 223 158 3 c202 3 232 -4 258 -64 11 -24 27 -44 35
-44 12 0 14 21 12 132 -2 76 -7 133 -13 134 -5 2 -20 -19 -33 -45 -14 -31 -31
-51 -45 -55 -12 -3 -102 -6 -199 -6 l-178 0 0 241 0 241 219 -4 c217 -3 220
-3 245 -27 15 -14 31 -42 38 -63 18 -62 28 -44 28 52 l0 90 -400 0 c-268 0
-400 -3 -400 -10z"/>
</g>
</svg>
