<svg width="2167" height="512" viewBox="0 0 2167 512" fill="none" xmlns="http://www.w3.org/2000/svg">
<path d="M0 73.8384V221.56L116.54 165.768V503.826H270.78V0H160.002L0 73.8384Z" fill="black"/>
<path d="M1171.61 183.814C1171.61 67.272 1092.86 0 982.081 0H736.762V503.826H893.459V359.41H930.399L1014.91 503.826H1189.7L1085.44 335.601C1138.78 307.682 1171.61 255.196 1171.61 183.814ZM960.729 234.648H893.459V132.087H960.729C1001.73 132.087 1017.32 152.59 1017.32 183.77C1017.37 214.145 1001.78 234.648 960.729 234.648Z" fill="black"/>
<path d="M1502.33 281.462C1502.33 338.058 1473.61 370.085 1430.95 370.085C1388.29 370.085 1359.57 338.058 1359.57 281.462V0H1201.22V295.398C1201.22 434.052 1290.65 512 1430.95 512C1572.1 512 1660.68 434.052 1660.68 295.398V0H1502.33V281.462Z" fill="black"/>
<path d="M2013.56 0V234.648L1847.8 0H1699.28V503.826H1852.76V251.89L2036.52 503.826H2167V0H2013.56Z" fill="black"/>
<path d="M321.164 503.781H686.328V0H321.164V503.781ZM661.448 487.611H346.089L503.768 265.872L661.448 487.611ZM513.685 251.89L670.158 31.8046V471.976L513.685 251.89ZM503.768 237.954L346.044 16.1703H661.403L503.768 237.954ZM493.807 251.89L337.334 471.976V31.8046L493.807 251.89Z" fill="black"/>
</svg>
