<?xml version="1.0" encoding="utf-8"?>
<!-- Generator: Adobe Illustrator 19.2.1, SVG Export Plug-In . SVG Version: 6.00 Build 0)  -->
<svg version="1.1" id="Layer_1" xmlns="http://www.w3.org/2000/svg" xmlns:xlink="http://www.w3.org/1999/xlink" x="0px" y="0px"
	 viewBox="0 0 398.7 36.3" style="enable-background:new 0 0 398.7 36.3;" xml:space="preserve">
<style type="text/css">
	.st0{fill:#B4B4B4;stroke:#B4B4B4;stroke-width:1.7414;stroke-miterlimit:10;}
	.st1{fill:#FFFFFF;}
	.st2{fill:#BBBDBF;}
</style>
<g>
	<g>
		<path class="st0" d="M25,25.9V2.3h1.8v23.6c0,1.2-0.3,2.3-0.8,3.3c-0.5,1-1.3,1.9-2.2,2.7c-0.9,0.8-2,1.4-3.2,1.8
			c-1.2,0.4-2.6,0.7-4,0.7h-3.7c-1.4,0-2.8-0.2-4-0.7c-1.2-0.4-2.3-1-3.2-1.8c-0.9-0.8-1.7-1.6-2.2-2.7c-0.5-1-0.8-2.1-0.8-3.3V2.3
			h1.8v23.6c0,0.9,0.2,1.8,0.7,2.7c0.4,0.8,1,1.6,1.8,2.2c0.8,0.6,1.7,1.1,2.7,1.5c1,0.4,2.1,0.5,3.2,0.5h3.7c1.2,0,2.3-0.2,3.3-0.5
			c1-0.4,1.9-0.9,2.6-1.5c0.8-0.6,1.3-1.4,1.8-2.2C24.7,27.7,25,26.9,25,25.9z"/>
		<g>
			<path class="st1" d="M48.6,17h9.6v8.4c0,1.2-0.3,2.3-0.8,3.3c-0.5,1-1.3,1.9-2.2,2.7c-0.9,0.8-2.1,1.4-3.3,1.8
				c-1.3,0.4-2.6,0.7-4,0.7H44c-1.5,0-2.8-0.2-4.1-0.7c-1.3-0.4-2.4-1-3.3-1.8c-0.9-0.8-1.7-1.6-2.2-2.7c-0.5-1-0.8-2.1-0.8-3.3
				V10.2c0-1.1,0.3-2.2,0.8-3.3c0.5-1,1.3-1.9,2.2-2.7c0.9-0.8,2.1-1.4,3.3-1.8C41.2,2,42.5,1.8,44,1.8h3.8c1.4,0,2.7,0.2,4,0.7
				c1.3,0.5,2.4,1.1,3.3,1.8C56,5,56.8,5.9,57.3,6.9c0.6,1,0.8,2.1,0.8,3.2h-1.9c0-0.9-0.2-1.8-0.7-2.7c-0.5-0.8-1.1-1.6-1.8-2.2
				c-0.8-0.6-1.7-1.1-2.7-1.5c-1-0.4-2.1-0.5-3.3-0.5H44c-1.2,0-2.3,0.2-3.3,0.5c-1,0.4-1.9,0.9-2.7,1.5c-0.8,0.6-1.4,1.4-1.9,2.2
				c-0.5,0.8-0.7,1.7-0.7,2.7v15.2c0,0.9,0.2,1.8,0.7,2.7c0.4,0.8,1.1,1.6,1.8,2.2c0.8,0.6,1.7,1.1,2.7,1.5c1,0.4,2.2,0.5,3.3,0.5
				h3.8c1.2,0,2.3-0.2,3.3-0.5c1-0.4,1.9-0.9,2.7-1.5c0.8-0.6,1.4-1.4,1.8-2.2c0.4-0.8,0.7-1.7,0.7-2.7v-6.9h-7.7L48.6,17z"/>
			<path class="st1" d="M83.6,23.1H66.5l-4.8,10.7h-2L74.1,1.8h1.8l14.5,32.1h-2L83.6,23.1z M67.1,21.6h15.8L75,4.3L67.1,21.6z"/>
			<path class="st1" d="M93.7,33.8V1.8h1.9v30.5h17.1v1.5H93.7z"/>
			<path class="st1" d="M116.1,33.8V1.8h1.9v30.5h17.1v1.5H116.1z"/>
			<path class="st1" d="M140.4,32.3h22.8v1.5h-24.7V1.8h24.7v1.5h-22.8l0,13.7h17.1v1.5h-17.1V32.3z"/>
			<path class="st1" d="M191.3,33.8h-2l-7-15.3c-0.2,0-0.5,0-0.7,0.1c-0.2,0-0.5,0-0.8,0h-12.4v15.3h-1.9V1.8h14.3
				c1.4,0,2.7,0.2,4,0.7c1.3,0.5,2.4,1.1,3.3,1.8c0.9,0.8,1.7,1.7,2.3,2.7c0.6,1,0.8,2.1,0.8,3.2c0,0.9-0.2,1.7-0.5,2.6
				c-0.3,0.8-0.8,1.6-1.5,2.3c-0.6,0.7-1.4,1.3-2.2,1.8c-0.9,0.5-1.8,0.9-2.8,1.2L191.3,33.8z M189.5,10.2c0-0.9-0.2-1.8-0.7-2.7
				c-0.5-0.8-1.1-1.6-1.8-2.2c-0.8-0.6-1.7-1.1-2.7-1.5c-1-0.4-2.1-0.5-3.3-0.5h-12.4V17h12.4c1.2,0,2.3-0.2,3.3-0.5
				c1-0.4,1.9-0.9,2.7-1.5c0.8-0.6,1.4-1.4,1.8-2.2C189.2,12,189.5,11.1,189.5,10.2z"/>
			<path class="st1" d="M204,33.8V18L192.3,1.8h2.2l10.4,14.5l10.4-14.5h2.2L205.9,18v15.8H204z"/>
		</g>
	</g>
	<g>
		<path class="st2" d="M223.8,31.5c-0.2,0.4-0.4,0.8-0.7,1.1c-0.3,0.3-0.7,0.6-1.1,0.8c-0.4,0.2-0.9,0.3-1.4,0.3
			c-0.5,0-1-0.1-1.4-0.3c-0.4-0.2-0.8-0.4-1.1-0.8s-0.6-0.7-0.7-1.1c-0.2-0.4-0.3-0.9-0.3-1.4s0.1-0.9,0.3-1.4
			c0.2-0.4,0.4-0.8,0.7-1.1s0.7-0.6,1.1-0.8c0.4-0.2,0.9-0.3,1.4-0.3c0.5,0,1,0.1,1.4,0.3c0.4,0.2,0.8,0.4,1.1,0.8s0.6,0.7,0.7,1.1
			c0.2,0.4,0.3,0.9,0.3,1.4S224,31.1,223.8,31.5z M222.8,29.1c-0.1-0.3-0.3-0.6-0.5-0.8c-0.2-0.2-0.5-0.4-0.8-0.6s-0.6-0.2-1-0.2
			c-0.4,0-0.7,0.1-1,0.2c-0.3,0.1-0.6,0.3-0.8,0.6c-0.2,0.2-0.4,0.5-0.5,0.8s-0.2,0.7-0.2,1s0.1,0.7,0.2,1c0.1,0.3,0.3,0.6,0.5,0.8
			c0.2,0.2,0.5,0.4,0.8,0.6c0.3,0.1,0.6,0.2,1,0.2c0.4,0,0.7-0.1,1-0.2c0.3-0.1,0.6-0.3,0.8-0.6c0.2-0.2,0.4-0.5,0.5-0.8
			c0.1-0.3,0.2-0.7,0.2-1S222.9,29.4,222.8,29.1z"/>
		<path class="st2" d="M227.9,33.5h-1v-6.8h1v1.8c0.1-0.3,0.3-0.5,0.5-0.8c0.2-0.2,0.4-0.4,0.6-0.6c0.2-0.2,0.5-0.3,0.8-0.4
			c0.3-0.1,0.6-0.1,0.9-0.1v1.1h-0.1c-0.4,0-0.7,0.1-1,0.2s-0.6,0.3-0.9,0.6c-0.2,0.3-0.4,0.6-0.6,1c-0.1,0.4-0.2,0.8-0.2,1.3V33.5z
			"/>
		<path class="st2" d="M233.2,25.3v-1.1h1.2v1.1H233.2z M233.2,33.5v-6.8h1v6.8H233.2z"/>
		<path class="st2" d="M243.8,33.8c-0.2,0.4-0.4,0.8-0.7,1c-0.3,0.3-0.7,0.5-1.1,0.6s-0.9,0.2-1.4,0.2c-0.6,0-1.1-0.1-1.6-0.2
			c-0.5-0.2-1-0.4-1.5-0.7l0.5-0.8c0.4,0.3,0.8,0.5,1.2,0.6s0.9,0.2,1.4,0.2c0.8,0,1.3-0.2,1.8-0.6c0.4-0.4,0.7-1,0.7-1.8v-0.8
			c-0.3,0.4-0.7,0.7-1.1,1c-0.4,0.3-1,0.4-1.6,0.4c-0.4,0-0.8-0.1-1.2-0.2c-0.4-0.1-0.7-0.4-1-0.6c-0.3-0.3-0.5-0.6-0.7-1
			c-0.2-0.4-0.3-0.8-0.3-1.3s0.1-0.9,0.3-1.3c0.2-0.4,0.4-0.7,0.7-1c0.3-0.3,0.6-0.5,1-0.6s0.8-0.2,1.2-0.2c0.3,0,0.6,0,0.9,0.1
			c0.3,0.1,0.5,0.2,0.7,0.3s0.4,0.3,0.6,0.4c0.2,0.2,0.3,0.3,0.5,0.5v-1.2h1v5.6C244,32.9,243.9,33.4,243.8,33.8z M242.8,28.9
			c-0.1-0.3-0.3-0.5-0.6-0.7c-0.2-0.2-0.5-0.4-0.8-0.5c-0.3-0.1-0.6-0.2-0.9-0.2s-0.6,0.1-0.9,0.2c-0.3,0.1-0.5,0.3-0.7,0.5
			s-0.4,0.4-0.5,0.7c-0.1,0.3-0.2,0.6-0.2,1s0.1,0.7,0.2,1c0.1,0.3,0.3,0.5,0.5,0.7c0.2,0.2,0.5,0.4,0.7,0.5
			c0.3,0.1,0.6,0.2,0.9,0.2c0.3,0,0.6-0.1,0.9-0.2c0.3-0.1,0.6-0.3,0.8-0.5c0.2-0.2,0.4-0.4,0.6-0.7s0.2-0.6,0.2-1
			C243.1,29.5,243,29.1,242.8,28.9z"/>
		<path class="st2" d="M247.3,25.3v-1.1h1.2v1.1H247.3z M247.4,33.5v-6.8h1v6.8H247.4z"/>
		<path class="st2" d="M252.7,33.5h-1v-6.8h1v1.2c0.2-0.4,0.5-0.7,0.9-0.9s0.8-0.4,1.4-0.4c0.4,0,0.8,0.1,1.1,0.2
			c0.3,0.1,0.6,0.3,0.8,0.6c0.2,0.2,0.4,0.5,0.5,0.9c0.1,0.3,0.2,0.7,0.2,1.1v4.2h-1v-4c0-0.6-0.2-1.1-0.5-1.5
			c-0.3-0.4-0.8-0.6-1.4-0.6c-0.3,0-0.6,0.1-0.8,0.2c-0.2,0.1-0.5,0.2-0.6,0.4c-0.2,0.2-0.3,0.4-0.4,0.7c-0.1,0.3-0.2,0.6-0.2,0.9
			V33.5z"/>
		<path class="st2" d="M262.1,27.7c-0.3,0.1-0.6,0.2-1,0.4l-0.3-0.8c0.4-0.2,0.8-0.3,1.1-0.4s0.8-0.2,1.3-0.2c0.9,0,1.6,0.2,2.1,0.7
			s0.7,1.1,0.7,2v4.1h-1v-1c-0.2,0.3-0.6,0.6-1,0.8c-0.4,0.2-0.9,0.4-1.5,0.4c-0.3,0-0.6,0-0.9-0.1c-0.3-0.1-0.6-0.2-0.8-0.4
			c-0.2-0.2-0.4-0.4-0.6-0.7c-0.1-0.3-0.2-0.6-0.2-0.9s0.1-0.7,0.2-1c0.1-0.3,0.3-0.5,0.6-0.7s0.6-0.3,0.9-0.4
			c0.4-0.1,0.7-0.1,1.2-0.1c0.4,0,0.8,0,1.1,0.1c0.3,0.1,0.6,0.1,0.9,0.2v-0.2c0-0.6-0.2-1.1-0.5-1.4s-0.8-0.5-1.5-0.5
			C262.8,27.5,262.4,27.6,262.1,27.7z M261.8,30.5c-0.3,0.3-0.5,0.6-0.5,1c0,0.2,0,0.4,0.1,0.6c0.1,0.2,0.2,0.3,0.4,0.4
			c0.2,0.1,0.3,0.2,0.5,0.3s0.4,0.1,0.6,0.1c0.3,0,0.6,0,0.9-0.1c0.3-0.1,0.5-0.2,0.7-0.4c0.2-0.2,0.4-0.4,0.5-0.6
			c0.1-0.2,0.2-0.5,0.2-0.7v-0.7c-0.3-0.1-0.5-0.1-0.9-0.2c-0.3-0.1-0.7-0.1-1.1-0.1C262.6,30.1,262.1,30.2,261.8,30.5z"/>
		<path class="st2" d="M269.4,33.5V24h1v9.6H269.4z"/>
		<path class="st2" d="M280,27.7c-0.3,0.1-0.6,0.2-1,0.4l-0.3-0.8c0.4-0.2,0.8-0.3,1.1-0.4c0.4-0.1,0.8-0.2,1.3-0.2
			c0.9,0,1.6,0.2,2.1,0.7s0.7,1.1,0.7,2v4.1h-1v-1c-0.2,0.3-0.6,0.6-1,0.8c-0.4,0.2-0.9,0.4-1.5,0.4c-0.3,0-0.6,0-0.9-0.1
			c-0.3-0.1-0.6-0.2-0.8-0.4c-0.2-0.2-0.4-0.4-0.6-0.7c-0.1-0.3-0.2-0.6-0.2-0.9s0.1-0.7,0.2-1c0.1-0.3,0.3-0.5,0.6-0.7
			s0.6-0.3,0.9-0.4c0.4-0.1,0.7-0.1,1.2-0.1c0.4,0,0.8,0,1.1,0.1c0.3,0.1,0.6,0.1,0.9,0.2v-0.2c0-0.6-0.2-1.1-0.5-1.4
			c-0.4-0.3-0.9-0.5-1.5-0.5C280.7,27.5,280.4,27.6,280,27.7z M279.7,30.5c-0.3,0.3-0.5,0.6-0.5,1c0,0.2,0,0.4,0.1,0.6
			c0.1,0.2,0.2,0.3,0.4,0.4s0.3,0.2,0.5,0.3c0.2,0.1,0.4,0.1,0.6,0.1c0.3,0,0.6,0,0.9-0.1c0.3-0.1,0.5-0.2,0.7-0.4
			c0.2-0.2,0.4-0.4,0.5-0.6c0.1-0.2,0.2-0.5,0.2-0.7v-0.7c-0.3-0.1-0.5-0.1-0.9-0.2c-0.3-0.1-0.7-0.1-1.1-0.1
			C280.5,30.1,280,30.2,279.7,30.5z"/>
		<path class="st2" d="M288.3,33.5h-1v-6.8h1v1.8c0.1-0.3,0.3-0.5,0.5-0.8c0.2-0.2,0.4-0.4,0.6-0.6c0.2-0.2,0.5-0.3,0.8-0.4
			c0.3-0.1,0.6-0.1,0.9-0.1v1.1h-0.1c-0.4,0-0.7,0.1-1,0.2s-0.6,0.3-0.9,0.6c-0.2,0.3-0.4,0.6-0.6,1c-0.1,0.4-0.2,0.8-0.2,1.3V33.5z
			"/>
		<path class="st2" d="M294.9,31.6c0,0.4,0.1,0.7,0.3,0.9c0.2,0.2,0.5,0.2,0.8,0.2c0.2,0,0.3,0,0.5-0.1c0.2,0,0.3-0.1,0.5-0.2v0.9
			c-0.2,0.1-0.4,0.2-0.6,0.2s-0.4,0.1-0.7,0.1c-0.3,0-0.5,0-0.8-0.1c-0.2-0.1-0.4-0.2-0.6-0.3c-0.2-0.2-0.3-0.4-0.4-0.6
			c-0.1-0.2-0.1-0.5-0.1-0.9v-4.1h-0.9v-0.9h0.9v-2h1v2h2.2v0.9h-2.2V31.6z"/>
		<path class="st2" d="M299.7,33.5v-1.4h1.2v1.4H299.7z"/>
		<path class="st2" d="M315.3,31.5c-0.2,0.4-0.4,0.8-0.7,1.1c-0.3,0.3-0.7,0.6-1.1,0.8c-0.4,0.2-0.9,0.3-1.4,0.3
			c-0.5,0-1-0.1-1.4-0.3c-0.4-0.2-0.8-0.4-1.1-0.8c-0.3-0.3-0.6-0.7-0.7-1.1c-0.2-0.4-0.3-0.9-0.3-1.4s0.1-0.9,0.3-1.4
			c0.2-0.4,0.4-0.8,0.7-1.1c0.3-0.3,0.7-0.6,1.1-0.8c0.4-0.2,0.9-0.3,1.4-0.3c0.5,0,1,0.1,1.4,0.3c0.4,0.2,0.8,0.4,1.1,0.8
			s0.6,0.7,0.7,1.1c0.2,0.4,0.3,0.9,0.3,1.4S315.5,31.1,315.3,31.5z M314.4,29.1c-0.1-0.3-0.3-0.6-0.5-0.8c-0.2-0.2-0.5-0.4-0.8-0.6
			c-0.3-0.1-0.6-0.2-1-0.2c-0.4,0-0.7,0.1-1,0.2c-0.3,0.1-0.6,0.3-0.8,0.6s-0.4,0.5-0.5,0.8c-0.1,0.3-0.2,0.7-0.2,1s0.1,0.7,0.2,1
			c0.1,0.3,0.3,0.6,0.5,0.8c0.2,0.2,0.5,0.4,0.8,0.6c0.3,0.1,0.6,0.2,1,0.2c0.4,0,0.7-0.1,1-0.2c0.3-0.1,0.6-0.3,0.8-0.6
			c0.2-0.2,0.4-0.5,0.5-0.8c0.1-0.3,0.2-0.7,0.2-1S314.5,29.4,314.4,29.1z"/>
		<path class="st2" d="M319.4,33.5h-1v-6.8h1v1.8c0.1-0.3,0.3-0.5,0.5-0.8c0.2-0.2,0.4-0.4,0.6-0.6c0.2-0.2,0.5-0.3,0.8-0.4
			c0.3-0.1,0.6-0.1,0.9-0.1v1.1h-0.1c-0.4,0-0.7,0.1-1,0.2c-0.3,0.1-0.6,0.3-0.9,0.6c-0.2,0.3-0.4,0.6-0.6,1
			c-0.1,0.4-0.2,0.8-0.2,1.3V33.5z"/>
		<path class="st2" d="M324.7,25.3v-1.1h1.2v1.1H324.7z M324.8,33.5v-6.8h1v6.8H324.8z"/>
		<path class="st2" d="M335.3,33.8c-0.2,0.4-0.4,0.8-0.7,1c-0.3,0.3-0.7,0.5-1.1,0.6c-0.4,0.1-0.9,0.2-1.4,0.2
			c-0.6,0-1.1-0.1-1.6-0.2c-0.5-0.2-1-0.4-1.5-0.7l0.5-0.8c0.4,0.3,0.8,0.5,1.2,0.6c0.4,0.1,0.9,0.2,1.4,0.2c0.8,0,1.3-0.2,1.8-0.6
			s0.7-1,0.7-1.8v-0.8c-0.3,0.4-0.7,0.7-1.1,1c-0.4,0.3-1,0.4-1.6,0.4c-0.4,0-0.8-0.1-1.2-0.2c-0.4-0.1-0.7-0.4-1-0.6
			c-0.3-0.3-0.5-0.6-0.7-1c-0.2-0.4-0.3-0.8-0.3-1.3s0.1-0.9,0.3-1.3c0.2-0.4,0.4-0.7,0.7-1s0.6-0.5,1-0.6s0.8-0.2,1.2-0.2
			c0.3,0,0.6,0,0.9,0.1c0.3,0.1,0.5,0.2,0.7,0.3c0.2,0.1,0.4,0.3,0.6,0.4c0.2,0.2,0.3,0.3,0.5,0.5v-1.2h1v5.6
			C335.6,32.9,335.5,33.4,335.3,33.8z M334.4,28.9c-0.1-0.3-0.3-0.5-0.6-0.7c-0.2-0.2-0.5-0.4-0.8-0.5c-0.3-0.1-0.6-0.2-0.9-0.2
			c-0.3,0-0.6,0.1-0.9,0.2c-0.3,0.1-0.5,0.3-0.7,0.5c-0.2,0.2-0.4,0.4-0.5,0.7s-0.2,0.6-0.2,1s0.1,0.7,0.2,1
			c0.1,0.3,0.3,0.5,0.5,0.7c0.2,0.2,0.5,0.4,0.7,0.5c0.3,0.1,0.6,0.2,0.9,0.2c0.3,0,0.6-0.1,0.9-0.2c0.3-0.1,0.6-0.3,0.8-0.5
			c0.2-0.2,0.4-0.4,0.6-0.7c0.1-0.3,0.2-0.6,0.2-1C334.6,29.5,334.5,29.1,334.4,28.9z"/>
		<path class="st2" d="M338.8,25.3v-1.1h1.2v1.1H338.8z M338.9,33.5v-6.8h1v6.8H338.9z"/>
		<path class="st2" d="M344.2,33.5h-1v-6.8h1v1.2c0.2-0.4,0.5-0.7,0.9-0.9s0.8-0.4,1.4-0.4c0.4,0,0.8,0.1,1.1,0.2s0.6,0.3,0.8,0.6
			c0.2,0.2,0.4,0.5,0.5,0.9c0.1,0.3,0.2,0.7,0.2,1.1v4.2h-1v-4c0-0.6-0.2-1.1-0.5-1.5c-0.3-0.4-0.8-0.6-1.4-0.6
			c-0.3,0-0.6,0.1-0.8,0.2c-0.2,0.1-0.5,0.2-0.6,0.4c-0.2,0.2-0.3,0.4-0.4,0.7c-0.1,0.3-0.2,0.6-0.2,0.9V33.5z"/>
		<path class="st2" d="M353.6,27.7c-0.3,0.1-0.6,0.2-1,0.4l-0.3-0.8c0.4-0.2,0.8-0.3,1.1-0.4s0.8-0.2,1.3-0.2c0.9,0,1.6,0.2,2.1,0.7
			s0.7,1.1,0.7,2v4.1h-1v-1c-0.2,0.3-0.6,0.6-1,0.8c-0.4,0.2-0.9,0.4-1.5,0.4c-0.3,0-0.6,0-0.9-0.1c-0.3-0.1-0.6-0.2-0.8-0.4
			c-0.2-0.2-0.4-0.4-0.6-0.7c-0.1-0.3-0.2-0.6-0.2-0.9s0.1-0.7,0.2-1c0.1-0.3,0.3-0.5,0.6-0.7s0.6-0.3,0.9-0.4
			c0.4-0.1,0.7-0.1,1.2-0.1c0.4,0,0.8,0,1.1,0.1c0.3,0.1,0.6,0.1,0.9,0.2v-0.2c0-0.6-0.2-1.1-0.5-1.4s-0.8-0.5-1.5-0.5
			C354.3,27.5,354,27.6,353.6,27.7z M353.3,30.5c-0.3,0.3-0.5,0.6-0.5,1c0,0.2,0,0.4,0.1,0.6c0.1,0.2,0.2,0.3,0.4,0.4
			c0.2,0.1,0.3,0.2,0.5,0.3s0.4,0.1,0.6,0.1c0.3,0,0.6,0,0.9-0.1c0.3-0.1,0.5-0.2,0.7-0.4c0.2-0.2,0.4-0.4,0.5-0.6
			c0.1-0.2,0.2-0.5,0.2-0.7v-0.7c-0.3-0.1-0.5-0.1-0.9-0.2c-0.3-0.1-0.7-0.1-1.1-0.1C354.2,30.1,353.7,30.2,353.3,30.5z"/>
		<path class="st2" d="M361,33.5V24h1v9.6H361z"/>
		<path class="st2" d="M373.5,33.8c-0.3,0.7-0.6,1.2-1,1.5c-0.4,0.3-0.8,0.4-1.3,0.4c-0.3,0-0.5,0-0.8-0.1c-0.2-0.1-0.5-0.1-0.7-0.3
			l0.3-0.8c0.2,0.1,0.3,0.2,0.5,0.2c0.2,0,0.4,0.1,0.6,0.1c0.3,0,0.6-0.1,0.8-0.3s0.4-0.5,0.6-1l-3.1-6.8h1.1l2.5,5.7l2.2-5.7h1.1
			L373.5,33.8z"/>
		<path class="st2" d="M384.9,31.5c-0.2,0.4-0.4,0.8-0.7,1.1c-0.3,0.3-0.7,0.6-1.1,0.8c-0.4,0.2-0.9,0.3-1.4,0.3
			c-0.5,0-1-0.1-1.4-0.3c-0.4-0.2-0.8-0.4-1.1-0.8s-0.6-0.7-0.7-1.1c-0.2-0.4-0.3-0.9-0.3-1.4s0.1-0.9,0.3-1.4
			c0.2-0.4,0.4-0.8,0.7-1.1s0.7-0.6,1.1-0.8c0.4-0.2,0.9-0.3,1.4-0.3c0.5,0,1,0.1,1.4,0.3c0.4,0.2,0.8,0.4,1.1,0.8s0.6,0.7,0.7,1.1
			c0.2,0.4,0.3,0.9,0.3,1.4S385.1,31.1,384.9,31.5z M384,29.1c-0.1-0.3-0.3-0.6-0.5-0.8c-0.2-0.2-0.5-0.4-0.8-0.6s-0.6-0.2-1-0.2
			c-0.4,0-0.7,0.1-1,0.2c-0.3,0.1-0.6,0.3-0.8,0.6c-0.2,0.2-0.4,0.5-0.5,0.8s-0.2,0.7-0.2,1s0.1,0.7,0.2,1c0.1,0.3,0.3,0.6,0.5,0.8
			c0.2,0.2,0.5,0.4,0.8,0.6c0.3,0.1,0.6,0.2,1,0.2c0.4,0,0.7-0.1,1-0.2c0.3-0.1,0.6-0.3,0.8-0.6c0.2-0.2,0.4-0.5,0.5-0.8
			c0.1-0.3,0.2-0.7,0.2-1S384.1,29.4,384,29.1z"/>
		<path class="st2" d="M392.8,26.7h1v6.8h-1v-1.2c-0.2,0.4-0.5,0.7-0.9,0.9s-0.8,0.4-1.4,0.4c-0.4,0-0.8-0.1-1.1-0.2
			c-0.3-0.1-0.6-0.3-0.8-0.6s-0.4-0.5-0.5-0.9c-0.1-0.3-0.2-0.7-0.2-1.1v-4.2h1v4c0,0.6,0.2,1.1,0.5,1.5c0.3,0.4,0.8,0.6,1.4,0.6
			c0.3,0,0.6,0,0.8-0.2s0.5-0.2,0.6-0.4c0.2-0.2,0.3-0.4,0.4-0.7c0.1-0.3,0.2-0.6,0.2-0.9V26.7z"/>
		<path class="st2" d="M396.9,33.5v-1.4h1.2v1.4H396.9z"/>
	</g>
</g>
<g>
</g>
<g>
</g>
<g>
</g>
<g>
</g>
<g>
</g>
<g>
</g>
<g>
</g>
<g>
</g>
<g>
</g>
<g>
</g>
<g>
</g>
<g>
</g>
<g>
</g>
<g>
</g>
<g>
</g>
</svg>
